<svg width="145" height="67" viewBox="0 0 145 67" fill="none" xmlns="http://www.w3.org/2000/svg">
<path d="M0 16.3964H45.6527C48.5527 11.8664 52.3636 8.27448 57.0928 5.61309C61.8183 2.95542 66.9491 1.62659 72.4888 1.62659C78.0249 1.62659 83.1668 2.95915 87.9109 5.62798C92.655 8.29681 96.4622 11.8888 99.325 16.3964H145L140.479 20.9226H101.816C102.612 22.6385 103.214 24.4289 103.623 26.2975H135.24L130.719 30.8274H104.322C104.4 31.9962 104.437 32.8821 104.437 33.4851C104.437 34.0881 104.4 34.9777 104.322 36.1465H125.41L120.885 40.6727H103.623C103.214 42.5599 102.612 44.3428 101.816 46.0215H115.494L110.914 50.5478H99.325C96.4622 55.0628 92.655 58.6659 87.9109 61.3497C83.1668 64.0334 78.0249 65.3734 72.4888 65.3734C66.9491 65.3734 61.8183 64.0371 57.0928 61.3645C52.3636 58.6883 48.5527 55.0814 45.6527 50.5478H34.0862L29.5912 46.0215H43.2435C42.4553 44.3428 41.8604 42.5599 41.4551 40.6727H24.2038L19.6233 36.1465H40.7078C40.6297 34.9777 40.5926 34.0881 40.5926 33.4851C40.5926 32.8821 40.6297 31.9962 40.7078 30.8274H14.3662L9.78564 26.2975H41.4551C41.8604 24.4289 42.4553 22.6385 43.2435 20.9226H4.52103L0 16.3964ZM47.389 22.8768C45.9501 26.2528 45.2288 29.7889 45.2288 33.4851C45.2288 37.1813 45.9501 40.7211 47.389 44.0971C48.8278 47.4695 50.7686 50.384 53.2076 52.8332C55.6465 55.2824 58.5465 57.2291 61.9076 58.6771C65.2686 60.125 68.7969 60.8471 72.4888 60.8471C76.177 60.8471 79.7091 60.125 83.0813 58.6771C86.4497 57.2291 89.3572 55.2824 91.7962 52.8332C94.2351 50.384 96.1759 47.4695 97.6296 44.0971C99.0796 40.7211 99.8046 37.1813 99.8046 33.4851C99.8046 29.7889 99.0796 26.2528 97.6296 22.8768C96.1759 19.5007 94.2351 16.5936 91.7962 14.1519C89.3572 11.7138 86.4497 9.77081 83.0813 8.32287C79.7091 6.87492 76.177 6.15281 72.4888 6.15281C68.7969 6.15281 65.2686 6.87492 61.9076 8.32287C58.5465 9.77081 55.6465 11.7138 53.2076 14.1519C50.7686 16.5936 48.8278 19.5007 47.389 22.8768ZM50.7351 40.6727H53.5608L53.479 29.949L56.8995 40.6727L60.0412 40.6541L63.3985 30.0048V40.6727H66.4137V26.2975L62.1678 26.2938L58.5242 37.7582L54.81 26.3086L50.7351 26.2975V40.6727ZM69.6632 40.6727H72.6562V26.2975H69.6632V40.6727ZM75.9056 40.6727H78.787V30.3175L84.5201 40.6727H87.9964V26.2975H85.1708V36.7123L79.4377 26.2975H75.9056V40.6727ZM91.3017 40.6727H94.2388V26.2975H91.3017V40.6727Z" fill="white"/>
</svg>
