<svg id="svg" version="1.1" xmlns="http://www.w3.org/2000/svg" xmlns:xlink="http://www.w3.org/1999/xlink" width="400" height="260.1163542340013" viewBox="0, 0, 400,260.1163542340013"><g id="svgg"><path id="path0" d="M5.947 120.321 L 5.947 240.642 7.434 242.724 C 8.251 243.869,9.299 245.301,9.761 245.906 L 10.601 247.007 10.601 123.504 L 10.601 0.000 8.274 0.000 L 5.947 0.000 5.947 120.321 M389.399 123.390 L 389.399 246.781 390.164 245.886 C 390.584 245.393,391.603 244.064,392.426 242.932 L 393.924 240.874 393.989 120.437 L 394.055 -0.000 391.727 -0.000 L 389.399 0.000 389.399 123.390 M201.810 96.084 C 168.380 98.189,154.704 103.682,151.333 116.354 C 148.512 126.962,156.394 139.641,177.014 157.664 L 179.109 159.495 179.524 158.625 C 181.817 153.816,196.296 149.506,215.126 148.028 C 224.969 147.256,231.239 146.273,236.070 144.744 C 248.895 140.685,252.427 130.437,246.374 114.844 C 243.625 107.764,237.297 95.815,236.460 96.124 C 235.881 96.338,233.891 96.338,215.902 96.131 C 209.005 96.051,202.663 96.030,201.810 96.084 M228.697 98.656 C 235.321 99.241,234.968 98.955,238.431 106.529 C 244.066 118.853,245.734 130.059,242.650 134.879 C 238.138 141.933,229.412 144.948,209.438 146.353 C 197.884 147.166,183.486 151.512,179.245 155.467 C 178.736 155.942,178.611 155.965,178.306 155.642 C 151.990 127.745,149.020 114.250,167.260 105.458 C 179.786 99.420,205.320 96.594,228.697 98.656 M208.598 107.201 C 207.255 107.614,207.204 107.674,205.385 111.026 L 204.137 113.325 200.429 114.067 C 196.383 114.877,195.661 115.142,195.783 115.771 C 195.911 116.436,197.218 116.654,200.080 116.489 L 202.746 116.336 201.305 119.152 C 199.832 122.032,198.156 124.105,196.471 125.132 C 195.138 125.945,195.045 125.855,194.891 123.605 C 194.259 114.382,183.315 117.807,180.989 127.956 C 180.684 129.285,180.754 131.773,181.122 132.692 C 181.340 133.236,179.901 134.023,177.625 134.606 C 174.797 135.330,173.269 134.212,173.647 131.694 C 173.965 129.568,180.409 117.309,184.644 110.771 C 186.788 107.462,186.647 107.049,183.546 107.549 C 181.620 107.859,181.884 107.577,178.445 112.993 C 168.197 129.132,165.650 136.725,169.771 138.849 C 172.146 140.073,178.728 138.562,182.625 135.898 C 183.440 135.341,183.702 135.276,184.153 135.517 C 186.727 136.895,192.586 132.991,193.775 129.107 C 193.877 128.773,194.235 128.479,194.653 128.388 C 195.041 128.302,195.983 127.760,196.747 127.182 C 197.665 126.487,198.067 126.293,197.936 126.608 C 197.384 127.931,196.509 130.931,196.509 131.503 C 196.509 134.801,201.313 135.271,206.603 132.492 L 208.421 131.536 209.043 132.120 C 210.410 133.404,213.547 132.956,215.622 131.180 L 216.709 130.250 217.404 130.913 C 219.403 132.820,222.468 132.395,224.657 129.908 L 225.645 128.786 226.231 129.578 C 228.197 132.238,233.772 131.700,235.783 128.657 C 237.261 126.422,236.682 123.736,233.866 119.764 C 232.514 117.856,232.381 116.908,233.360 116.138 C 234.254 115.435,235.297 115.721,235.811 116.812 C 236.247 117.737,236.673 117.770,236.802 116.889 C 237.299 113.500,231.327 112.897,229.130 116.115 C 227.884 117.940,228.397 119.729,231.161 123.206 C 232.894 125.385,232.858 127.211,231.066 128.088 C 229.009 129.093,226.713 127.377,227.462 125.394 C 227.995 123.980,226.472 124.462,225.715 125.946 C 224.521 128.285,222.838 129.392,221.900 128.455 C 221.355 127.910,221.552 127.172,223.371 122.948 C 226.501 115.676,226.603 114.912,224.411 115.122 C 222.294 115.326,221.968 115.733,219.791 120.897 C 217.009 127.500,216.487 128.248,214.665 128.248 C 212.770 128.248,212.888 127.051,215.380 121.042 C 217.028 117.067,217.198 116.506,216.858 116.165 C 216.282 115.589,214.041 115.959,213.236 116.763 C 212.592 117.407,209.907 123.468,208.938 126.465 C 207.794 130.004,201.939 132.266,201.939 129.169 C 201.939 128.843,203.194 125.622,204.728 122.012 L 207.518 115.449 208.672 115.113 C 216.332 112.884,219.522 111.556,219.522 110.596 C 219.522 110.308,219.497 110.312,213.589 111.531 C 211.109 112.043,209.052 112.435,209.018 112.401 C 208.984 112.367,209.410 111.388,209.964 110.226 C 211.717 106.547,211.596 106.279,208.598 107.201 M190.502 120.190 C 192.387 121.387,189.783 130.082,186.988 131.925 C 184.815 133.359,184.037 131.487,185.145 127.491 C 186.423 122.878,189.065 119.278,190.502 120.190 M62.643 135.220 C 60.289 136.289,60.506 131.839,60.506 178.927 C 60.506 225.584,60.326 221.376,62.376 222.626 C 63.333 223.209,88.355 223.418,92.178 222.874 C 117.680 219.248,124.833 187.285,102.486 176.813 C 100.513 175.888,100.270 175.706,100.687 175.461 C 117.150 165.777,113.942 141.216,95.516 135.876 C 91.093 134.595,65.161 134.077,62.643 135.220 M325.663 136.112 C 318.561 137.500,313.783 142.050,311.790 149.321 C 311.268 151.227,311.216 152.099,311.128 160.428 C 311.076 165.400,311.002 169.498,310.964 169.536 C 310.926 169.574,310.035 169.786,308.983 170.007 C 305.729 170.691,305.571 171.029,305.797 176.805 L 305.966 181.125 306.836 181.998 C 307.651 182.815,307.782 182.860,308.927 182.699 C 309.599 182.606,310.353 182.504,310.603 182.473 C 311.033 182.421,311.057 183.450,311.052 201.568 C 311.047 221.723,311.061 221.972,312.227 222.737 C 313.389 223.498,322.453 223.320,323.386 222.518 L 324.111 221.894 324.240 200.614 L 324.370 179.334 325.275 179.092 C 328.558 178.214,337.155 175.230,337.479 174.855 C 338.293 173.915,338.178 173.312,336.300 168.671 C 333.906 162.755,334.355 162.983,328.765 164.855 C 326.490 165.616,324.531 166.244,324.412 166.248 C 324.294 166.253,324.236 163.133,324.283 159.314 L 324.370 152.370 325.275 150.605 C 326.893 147.448,329.810 146.751,333.598 148.616 C 336.665 150.126,337.192 149.772,337.655 145.890 C 337.829 144.430,338.205 142.312,338.491 141.183 C 339.097 138.785,338.970 138.343,337.445 137.566 C 334.552 136.090,329.171 135.426,325.663 136.112 M294.266 142.475 C 286.851 144.037,282.327 148.501,280.388 156.173 C 280.064 157.454,279.933 159.560,279.838 165.029 L 279.714 172.203 277.210 172.039 C 273.348 171.786,273.362 171.767,273.030 177.960 C 272.687 184.381,272.631 184.289,277.059 184.540 L 279.757 184.693 279.827 203.293 L 279.897 221.894 280.622 222.518 C 281.752 223.489,290.969 223.489,292.099 222.518 L 292.825 221.894 292.894 203.163 L 292.964 184.432 296.126 184.254 C 302.366 183.904,302.098 184.188,302.027 178.014 C 301.948 171.073,302.037 171.184,296.902 171.650 C 295.086 171.815,293.455 171.949,293.277 171.948 C 292.770 171.945,292.824 160.067,293.340 158.330 C 294.637 153.962,298.029 152.861,302.775 155.266 C 305.258 156.524,305.978 156.003,306.227 152.770 C 306.320 151.564,306.673 149.480,307.011 148.139 C 307.893 144.650,307.791 144.480,304.062 143.221 C 301.392 142.320,296.701 141.963,294.266 142.475 M88.171 148.246 C 99.483 148.663,99.712 166.689,88.447 169.984 C 87.324 170.312,85.704 170.394,80.367 170.394 L 73.691 170.394 73.691 159.190 L 73.691 147.986 79.832 148.076 C 83.209 148.125,86.962 148.202,88.171 148.246 M130.652 155.143 C 129.942 155.429,129.699 155.808,124.913 164.114 C 119.649 173.251,119.579 172.489,126.037 176.193 C 131.743 179.466,131.058 179.868,136.796 169.879 C 142.501 159.947,142.541 160.734,136.148 157.086 C 132.316 154.899,131.752 154.700,130.652 155.143 M156.044 168.494 C 147.351 169.886,141.712 176.227,141.697 184.626 C 141.685 191.773,144.440 195.094,154.751 200.358 C 162.955 204.546,164.483 206.774,161.393 210.043 C 158.464 213.141,154.291 212.150,151.781 207.762 C 150.486 205.499,150.537 205.500,145.043 207.645 C 138.705 210.119,138.779 210.014,140.688 213.829 C 147.037 226.513,167.043 226.648,173.756 214.052 C 179.022 204.172,175.405 197.034,161.408 189.683 C 154.863 186.246,154.620 186.036,154.624 183.824 C 154.631 179.097,159.388 179.002,163.326 183.650 C 164.405 184.922,164.209 184.971,169.104 182.214 C 174.060 179.422,174.063 179.419,172.674 176.800 C 169.735 171.262,162.214 167.505,156.044 168.494 M202.510 169.361 C 188.550 171.325,179.075 182.149,179.082 196.122 C 179.092 215.455,197.640 228.287,215.554 221.353 C 220.217 219.548,220.187 219.719,216.941 213.467 C 213.929 207.667,214.070 207.783,211.392 208.898 C 198.293 214.351,186.377 199.574,194.591 188.063 C 198.421 182.697,205.395 180.805,211.474 183.486 C 213.765 184.496,213.814 184.470,215.637 181.285 C 216.523 179.738,217.933 177.556,218.772 176.437 C 220.849 173.664,220.811 173.482,217.841 172.011 C 213.321 169.772,207.159 168.706,202.510 169.361 M242.922 169.382 C 224.622 171.537,213.853 191.660,222.103 208.285 C 232.706 229.655,264.525 227.331,271.828 204.654 C 277.926 185.721,262.633 167.061,242.922 169.382 M121.784 201.030 C 121.784 222.181,121.785 222.191,123.038 222.862 C 123.360 223.034,125.459 223.142,128.510 223.142 L 133.459 223.142 134.215 222.386 L 134.971 221.630 134.971 203.381 L 134.971 185.133 132.814 185.133 C 129.304 185.133,124.986 183.790,122.754 182.005 L 121.784 181.230 121.784 201.030 M249.592 182.673 C 257.450 184.720,262.114 193.389,259.331 200.776 C 254.993 212.289,239.560 213.362,233.945 202.539 C 228.481 192.008,238.175 179.700,249.592 182.673 M89.981 184.014 C 99.614 186.645,102.889 198.279,96.040 205.539 C 92.546 209.243,90.042 209.955,80.502 209.955 L 73.691 209.955 73.691 196.776 L 73.691 183.597 76.858 183.514 C 82.432 183.369,88.458 183.598,89.981 184.014 M334.369 208.771 C 326.199 211.435,328.446 223.644,337.004 223.085 C 346.166 222.487,346.203 209.047,337.044 208.500 C 336.146 208.446,335.015 208.561,334.369 208.771 M339.412 211.131 C 341.988 212.641,342.855 216.256,341.229 218.714 C 339.133 221.880,335.026 222.184,332.537 219.356 C 328.440 214.702,334.051 207.989,339.412 211.131 M334.066 215.643 L 334.066 218.746 334.971 218.746 C 335.854 218.746,335.876 218.721,335.876 217.712 C 335.876 217.017,335.990 216.677,336.224 216.677 C 336.416 216.677,336.783 217.143,337.039 217.712 C 337.449 218.620,337.612 218.746,338.372 218.746 C 339.366 218.746,339.385 218.677,338.736 217.458 C 338.259 216.561,338.259 216.556,338.877 215.822 C 340.443 213.961,339.191 212.540,335.984 212.540 L 334.066 212.540 334.066 215.643 M337.355 214.123 C 337.823 214.591,337.433 215.126,336.624 215.126 C 335.998 215.126,335.876 215.020,335.876 214.480 C 335.876 213.775,336.787 213.555,337.355 214.123 " stroke="none" fill="#fbfafa" fill-rule="evenodd"></path><path id="path1" d="M0.001 111.765 C 0.002 233.478,-0.096 225.245,1.424 230.492 C 2.334 233.633,3.435 236.348,4.790 238.793 L 5.932 240.853 5.939 120.427 L 5.947 0.000 2.973 0.000 L 0.000 0.000 0.001 111.765 M10.796 123.630 L 10.730 247.259 12.540 248.942 C 18.451 254.435,25.008 257.810,33.096 259.522 C 35.199 259.967,42.408 259.987,200.000 259.987 L 364.706 259.987 367.387 259.406 C 374.730 257.816,380.900 254.684,386.619 249.643 L 389.140 247.421 389.140 123.711 L 389.140 0.000 200.001 0.000 L 10.861 0.000 10.796 123.630 M394.053 120.284 C 394.053 193.004,394.147 240.472,394.290 240.323 C 395.447 239.121,398.094 232.620,399.180 228.313 L 399.864 225.598 399.935 112.799 L 400.005 0.000 397.029 0.000 L 394.053 0.000 394.053 120.284 M230.628 96.082 L 237.210 96.181 238.981 99.351 C 250.745 120.399,252.424 132.311,244.718 140.045 C 240.123 144.656,232.571 146.745,215.385 148.159 C 199.636 149.455,189.539 151.791,183.066 155.637 C 181.274 156.702,179.444 158.475,179.444 159.147 C 179.444 160.174,174.333 155.777,167.151 148.572 C 150.584 131.954,146.709 120.041,154.499 109.678 C 161.561 100.283,183.263 95.342,215.255 95.845 C 220.090 95.921,227.008 96.028,230.628 96.082 M200.526 98.543 C 180.772 99.801,166.075 104.231,159.588 110.883 C 151.390 119.289,156.872 133.010,176.738 153.812 L 178.557 155.717 180.466 154.483 C 187.376 150.013,197.849 147.118,210.844 146.087 C 230.633 144.517,239.164 141.298,243.049 133.937 C 245.852 128.623,242.365 113.070,235.794 101.586 L 234.519 99.358 231.351 99.057 C 222.895 98.251,208.801 98.016,200.526 98.543 M211.327 106.880 C 211.401 107.074,210.957 108.354,210.339 109.725 C 209.722 111.096,209.309 112.217,209.421 112.217 C 209.773 112.217,215.953 110.934,217.671 110.504 C 220.465 109.805,220.498 110.811,217.727 112.209 C 216.172 112.993,210.202 114.974,208.643 115.224 L 207.683 115.377 205.147 121.360 C 201.542 129.869,201.552 129.826,202.918 130.345 C 204.906 131.101,208.009 128.847,208.997 125.930 C 211.638 118.129,213.193 115.763,215.596 115.889 C 217.548 115.992,217.529 116.250,215.159 121.948 C 213.197 126.663,213.071 127.191,213.746 127.866 C 215.251 129.370,217.021 127.345,219.522 121.258 C 221.715 115.919,222.257 115.164,223.997 115.023 C 226.900 114.788,226.878 115.097,223.411 123.198 C 222.273 125.858,221.626 127.694,221.721 127.994 C 222.123 129.260,223.919 128.685,224.952 126.959 C 226.705 124.029,227.880 123.449,227.621 125.641 C 227.425 127.295,228.228 128.248,229.818 128.248 C 232.292 128.248,233.052 125.600,231.210 123.398 C 227.423 118.869,227.446 115.994,231.284 114.251 C 234.245 112.906,238.896 115.579,236.728 117.379 C 236.296 117.737,235.811 117.532,235.811 116.991 C 235.811 116.404,234.610 115.758,233.865 115.945 C 232.191 116.365,232.473 117.795,234.904 121.213 C 236.902 124.020,237.283 126.622,235.981 128.555 C 233.843 131.726,228.965 132.520,226.537 130.092 L 225.583 129.138 224.365 130.360 C 222.126 132.606,219.248 132.927,217.452 131.131 L 216.761 130.440 215.535 131.412 C 213.285 133.194,210.483 133.554,208.974 132.257 L 208.301 131.677 207.090 132.423 C 204.469 134.035,200.078 134.924,198.323 134.197 C 196.409 133.404,196.005 131.411,197.144 128.385 L 197.778 126.699 196.436 127.603 C 195.698 128.100,194.903 128.507,194.669 128.507 C 194.411 128.507,193.952 129.086,193.502 129.981 C 191.546 133.866,187.506 136.428,184.428 135.734 C 183.606 135.548,183.293 135.645,181.811 136.538 C 177.609 139.073,172.100 140.168,169.732 138.939 C 165.938 136.970,167.619 130.679,175.403 117.718 C 181.295 107.906,181.555 107.594,184.017 107.388 C 186.238 107.202,186.777 107.595,186.000 108.834 C 173.963 128.025,171.314 135.170,176.430 134.642 C 178.654 134.413,180.882 133.381,180.791 132.623 C 180.371 129.122,180.944 126.365,182.702 123.432 C 187.072 116.142,194.987 116.408,195.068 123.847 L 195.087 125.589 195.863 125.322 C 197.629 124.714,202.444 118.309,202.457 116.553 C 202.457 116.515,201.090 116.518,199.419 116.561 C 196.177 116.644,195.213 116.375,195.556 115.483 C 195.785 114.886,196.516 114.653,200.600 113.870 L 204.162 113.188 205.281 111.003 C 205.897 109.801,206.686 108.478,207.036 108.062 C 207.983 106.937,211.027 106.099,211.327 106.880 M188.413 121.069 C 186.382 123.224,184.060 130.089,184.858 131.580 C 185.646 133.052,187.714 131.803,189.110 129.015 C 191.832 123.573,191.340 117.964,188.413 121.069 M92.913 135.100 C 110.332 138.138,117.644 158.949,105.718 171.548 C 104.565 172.766,102.933 174.188,102.092 174.707 C 100.427 175.735,100.428 175.760,102.133 176.476 C 117.558 182.957,120.788 203.579,108.220 215.336 C 100.791 222.285,96.341 223.400,76.028 223.400 C 61.828 223.400,62.010 223.428,60.827 221.083 L 60.246 219.929 60.246 179.018 C 60.246 150.742,60.331 137.883,60.521 137.379 C 60.847 136.515,61.977 135.262,62.702 134.960 C 63.702 134.544,90.433 134.668,92.913 135.100 M335.568 136.652 C 339.230 137.887,339.383 138.170,338.462 142.000 C 338.177 143.183,337.867 145.134,337.773 146.337 C 337.515 149.618,336.504 150.402,334.241 149.076 C 330.426 146.841,326.992 147.438,325.404 150.614 L 324.628 152.165 324.548 159.091 L 324.468 166.016 325.195 165.841 C 325.594 165.745,327.388 165.159,329.182 164.540 C 334.168 162.817,334.076 162.764,336.507 168.766 C 339.150 175.295,339.398 175.040,326.761 178.802 L 324.499 179.475 324.499 200.287 C 324.499 226.036,325.297 223.400,317.505 223.400 L 312.812 223.400 311.933 222.521 L 311.054 221.642 311.054 202.094 C 311.054 191.343,310.966 182.552,310.860 182.558 C 310.753 182.564,310.143 182.670,309.503 182.794 C 306.456 183.381,305.786 182.254,305.663 176.338 C 305.546 170.696,305.600 170.587,308.871 169.890 L 310.924 169.453 311.073 160.033 C 311.252 148.623,311.656 146.806,315.016 142.285 C 319.250 136.587,328.143 134.150,335.568 136.652 M303.436 142.867 C 307.771 144.123,308.040 144.477,307.224 147.833 C 306.922 149.078,306.544 151.202,306.385 152.553 C 305.936 156.356,305.459 156.694,302.527 155.288 C 295.656 151.995,293.212 154.597,293.012 165.417 L 292.896 171.687 294.153 171.685 C 294.845 171.684,296.453 171.563,297.727 171.418 C 301.817 170.949,301.940 171.118,302.171 177.502 C 302.410 184.135,302.602 183.893,296.724 184.381 L 292.954 184.694 292.948 203.207 C 292.942 223.463,293.026 222.323,291.484 223.111 C 290.569 223.580,281.995 223.496,281.055 223.010 C 279.741 222.330,279.767 222.731,279.767 203.286 L 279.767 184.948 278.178 184.782 C 277.304 184.690,276.135 184.615,275.579 184.615 C 272.899 184.615,272.650 183.998,272.893 177.940 C 273.138 171.836,273.166 171.797,277.246 171.914 L 279.767 171.987 279.767 165.261 C 279.767 158.018,279.949 156.470,281.184 153.190 C 284.483 144.426,293.838 140.086,303.436 142.867 M73.691 159.276 L 73.691 170.394 79.444 170.389 C 86.161 170.383,87.878 170.184,90.073 169.157 C 97.707 165.584,99.023 152.750,92.116 149.226 C 90.406 148.354,88.344 148.158,80.883 148.158 L 73.691 148.158 73.691 159.276 M136.539 157.143 C 142.667 160.668,142.630 159.917,137.148 169.497 C 131.175 179.934,131.694 179.629,125.750 176.192 C 119.365 172.501,119.412 173.462,125.135 163.510 C 131.064 153.199,130.363 153.590,136.539 157.143 M162.260 168.718 C 166.470 169.788,171.324 173.601,173.067 177.209 C 174.159 179.469,174.126 179.513,169.335 182.239 C 164.925 184.748,164.199 184.970,163.475 184.034 C 160.125 179.702,156.241 179.083,154.884 182.665 C 153.979 185.051,155.158 186.327,161.106 189.398 C 172.369 195.214,175.928 199.312,175.928 206.464 C 175.928 223.400,151.051 230.086,141.610 215.688 C 138.228 210.531,138.376 210.125,144.529 207.698 C 150.287 205.427,150.514 205.405,151.461 207.020 C 154.544 212.281,159.381 213.322,161.889 209.264 C 163.871 206.058,162.495 204.456,154.014 200.100 C 148.252 197.140,146.354 195.861,144.774 193.871 C 135.438 182.112,147.379 164.935,162.260 168.718 M210.640 169.489 C 213.395 170.016,216.189 170.983,218.358 172.161 C 220.779 173.476,220.834 173.901,218.909 176.418 C 218.126 177.442,216.749 179.549,215.850 181.098 C 213.771 184.683,213.861 184.632,211.416 183.614 C 202.080 179.727,192.114 186.172,192.114 196.094 C 192.114 206.397,202.527 212.953,211.870 208.533 C 214.051 207.501,213.944 207.395,217.263 213.833 C 220.222 219.574,220.229 219.361,217.056 220.848 C 203.345 227.273,186.743 220.811,180.801 206.737 C 172.502 187.076,189.788 165.499,210.640 169.489 M251.271 169.511 C 275.866 174.563,281.422 206.664,259.938 219.592 C 244.261 229.026,223.400 219.766,219.664 201.716 C 215.783 182.961,232.722 165.701,251.271 169.511 M123.162 182.112 C 125.282 183.730,128.763 184.802,132.708 185.051 L 135.229 185.211 135.229 203.021 C 135.229 225.527,135.959 223.400,128.235 223.400 L 123.542 223.400 122.663 222.521 L 121.784 221.642 121.784 201.448 C 121.784 190.341,121.841 181.254,121.911 181.254 C 121.981 181.254,122.544 181.640,123.162 182.112 M245.120 182.448 C 233.132 184.291,228.260 197.266,236.381 205.723 C 244.992 214.690,260.049 208.435,259.924 195.943 C 259.845 188.151,252.367 181.334,245.120 182.448 M73.753 196.655 L 73.820 209.728 80.841 209.705 C 88.563 209.679,89.585 209.539,92.566 208.096 C 100.271 204.369,101.909 193.606,95.705 187.470 C 92.357 184.160,90.151 183.592,80.605 183.586 L 73.686 183.581 73.753 196.655 M339.492 208.857 C 344.419 210.896,345.657 217.592,341.781 221.239 C 338.826 224.020,334.644 224.060,331.663 221.335 C 325.459 215.666,331.743 205.650,339.492 208.857 M334.452 210.954 C 329.436 213.232,330.670 220.628,336.130 221.023 C 338.130 221.167,339.246 220.755,340.480 219.417 C 344.394 215.170,339.694 208.572,334.452 210.954 M338.700 212.951 C 339.661 213.759,339.768 214.969,338.968 215.986 L 338.440 216.657 338.968 217.691 C 339.651 219.030,339.660 219.005,338.513 219.005 C 337.602 219.005,337.484 218.915,336.898 217.776 L 336.265 216.548 336.185 217.776 L 336.106 219.005 335.086 219.005 L 334.066 219.005 334.066 215.643 L 334.066 212.282 335.985 212.282 C 337.673 212.282,338.001 212.363,338.700 212.951 M336.134 214.533 C 336.134 215.037,336.250 215.146,336.714 215.079 C 337.552 214.960,337.611 214.187,336.794 214.031 C 336.233 213.924,336.134 213.999,336.134 214.533 " stroke="none" fill="#c31b23" fill-rule="evenodd"></path><path id="path2" d="M10.729 123.206 C 10.729 191.041,10.759 218.753,10.795 184.788 C 10.831 150.824,10.831 95.323,10.795 61.453 C 10.759 27.583,10.729 55.372,10.729 123.206 M207.702 95.860 C 208.525 95.912,209.805 95.911,210.546 95.859 C 211.287 95.807,210.614 95.765,209.050 95.766 C 207.485 95.766,206.879 95.809,207.702 95.860 M214.683 95.860 C 215.506 95.912,216.786 95.911,217.527 95.859 C 218.269 95.807,217.595 95.765,216.031 95.766 C 214.467 95.766,213.860 95.809,214.683 95.860 M200.194 96.106 C 200.443 96.171,200.850 96.171,201.099 96.106 C 201.348 96.041,201.144 95.988,200.646 95.988 C 200.149 95.988,199.945 96.041,200.194 96.106 M224.890 96.110 C 225.212 96.172,225.677 96.170,225.924 96.105 C 226.171 96.041,225.908 95.990,225.339 95.993 C 224.771 95.996,224.568 96.049,224.890 96.110 M231.875 96.376 C 232.483 96.430,233.414 96.430,233.943 96.374 C 234.473 96.319,233.975 96.274,232.838 96.275 C 231.700 96.276,231.267 96.321,231.875 96.376 M211.452 98.188 C 212.346 98.238,213.742 98.238,214.554 98.187 C 215.367 98.136,214.635 98.094,212.928 98.095 C 211.222 98.095,210.557 98.137,211.452 98.188 M202.521 98.433 C 202.770 98.498,203.177 98.498,203.426 98.433 C 203.675 98.368,203.471 98.315,202.973 98.315 C 202.476 98.315,202.272 98.368,202.521 98.433 M222.431 98.433 C 222.679 98.498,223.087 98.498,223.335 98.433 C 223.584 98.368,223.381 98.315,222.883 98.315 C 222.385 98.315,222.182 98.368,222.431 98.433 M155.901 108.016 L 155.010 108.985 155.979 108.094 C 156.882 107.265,157.068 107.046,156.870 107.046 C 156.827 107.046,156.391 107.482,155.901 108.016 M195.028 124.111 C 195.028 124.751,195.079 125.013,195.140 124.693 C 195.202 124.373,195.202 123.849,195.140 123.529 C 195.079 123.209,195.028 123.471,195.028 124.111 M236.647 125.921 C 236.647 126.419,236.700 126.622,236.765 126.374 C 236.830 126.125,236.830 125.718,236.765 125.469 C 236.700 125.220,236.647 125.423,236.647 125.921 M180.544 130.187 C 180.546 130.756,180.599 130.959,180.661 130.637 C 180.723 130.315,180.721 129.850,180.656 129.603 C 180.591 129.355,180.541 129.619,180.544 130.187 M229.929 131.529 C 230.178 131.594,230.585 131.594,230.834 131.529 C 231.083 131.464,230.879 131.411,230.381 131.411 C 229.884 131.411,229.680 131.464,229.929 131.529 M219.845 132.305 C 220.094 132.370,220.501 132.370,220.750 132.305 C 220.999 132.240,220.795 132.187,220.297 132.187 C 219.800 132.187,219.596 132.240,219.845 132.305 M60.372 179.056 C 60.372 201.241,60.402 210.279,60.440 199.139 C 60.477 188.000,60.477 169.849,60.440 158.803 C 60.402 147.757,60.372 156.871,60.372 179.056 M297.027 142.139 C 297.489 142.197,298.245 142.197,298.707 142.139 C 299.169 142.082,298.791 142.035,297.867 142.035 C 296.942 142.035,296.564 142.082,297.027 142.139 M324.351 160.181 C 324.352 163.452,324.389 164.754,324.434 163.075 C 324.479 161.396,324.479 158.720,324.433 157.128 C 324.388 155.536,324.351 156.910,324.351 160.181 M111.519 156.949 C 111.519 157.731,111.567 158.051,111.627 157.660 C 111.686 157.269,111.686 156.629,111.627 156.238 C 111.567 155.847,111.519 156.167,111.519 156.949 M227.020 176.988 C 226.392 177.628,225.936 178.151,226.007 178.151 C 226.078 178.151,226.651 177.628,227.279 176.988 C 227.907 176.348,228.362 175.824,228.291 175.824 C 228.220 175.824,227.648 176.348,227.020 176.988 M302.078 177.246 C 302.080 177.957,302.130 178.218,302.189 177.824 C 302.249 177.431,302.247 176.850,302.186 176.532 C 302.125 176.214,302.076 176.535,302.078 177.246 M272.846 177.893 C 272.846 178.390,272.899 178.594,272.964 178.345 C 273.029 178.096,273.029 177.689,272.964 177.440 C 272.899 177.191,272.846 177.395,272.846 177.893 M305.694 178.668 C 305.694 179.308,305.745 179.570,305.806 179.250 C 305.868 178.930,305.868 178.407,305.806 178.087 C 305.745 177.767,305.694 178.028,305.694 178.668 M324.364 200.388 C 324.364 211.978,324.396 216.719,324.434 210.924 C 324.473 205.129,324.473 195.646,324.434 189.851 C 324.396 184.056,324.364 188.798,324.364 200.388 M108.985 181.254 C 109.541 181.823,110.053 182.288,110.124 182.288 C 110.195 182.288,109.799 181.823,109.244 181.254 C 108.688 180.685,108.176 180.220,108.104 180.220 C 108.033 180.220,108.430 180.685,108.985 181.254 M278.154 184.798 C 278.476 184.860,278.941 184.858,279.189 184.793 C 279.436 184.728,279.173 184.678,278.604 184.681 C 278.035 184.683,277.833 184.736,278.154 184.798 M135.093 203.103 C 135.093 213.058,135.125 217.092,135.165 212.069 C 135.204 207.046,135.204 198.901,135.165 193.969 C 135.125 189.038,135.093 193.148,135.093 203.103 M219.089 196.122 C 219.091 197.117,219.137 197.493,219.193 196.956 C 219.249 196.420,219.248 195.605,219.191 195.146 C 219.134 194.687,219.088 195.126,219.089 196.122 M191.920 196.122 C 191.923 196.690,191.976 196.893,192.038 196.571 C 192.100 196.249,192.098 195.784,192.033 195.537 C 191.968 195.290,191.918 195.553,191.920 196.122 M175.898 206.464 C 175.900 207.175,175.950 207.435,176.010 207.042 C 176.069 206.649,176.068 206.068,176.006 205.750 C 175.945 205.431,175.896 205.753,175.898 206.464 M77.391 209.890 C 79.212 209.934,82.121 209.934,83.855 209.889 C 85.589 209.845,84.098 209.808,80.543 209.808 C 76.988 209.808,75.569 209.845,77.391 209.890 M336.199 221.251 C 336.448 221.316,336.855 221.316,337.104 221.251 C 337.353 221.186,337.149 221.133,336.652 221.133 C 336.154 221.133,335.950 221.186,336.199 221.251 M76.212 223.335 C 78.665 223.378,82.679 223.378,85.133 223.335 C 87.586 223.293,85.579 223.258,80.672 223.258 C 75.766 223.258,73.759 223.293,76.212 223.335 " stroke="none" fill="#db7178" fill-rule="evenodd"></path><path id="path3" d="M212.088 95.847 C 212.337 95.912,212.744 95.912,212.993 95.847 C 213.242 95.782,213.038 95.729,212.540 95.729 C 212.043 95.729,211.839 95.782,212.088 95.847 M335.165 212.467 C 335.556 212.526,336.196 212.526,336.587 212.467 C 336.978 212.408,336.658 212.359,335.876 212.359 C 335.094 212.359,334.774 212.408,335.165 212.467 M65.999 223.334 C 67.101 223.382,68.904 223.382,70.006 223.334 C 71.109 223.285,70.207 223.246,68.003 223.246 C 65.798 223.246,64.897 223.285,65.999 223.334 " stroke="none" fill="#e48c94" fill-rule="evenodd"></path><path id="path4" d="M389.268 123.335 C 389.268 191.241,389.298 219.021,389.334 185.068 C 389.370 151.115,389.370 95.556,389.334 61.603 C 389.298 27.650,389.268 55.430,389.268 123.335 M202.004 96.106 C 202.253 96.171,202.660 96.171,202.909 96.106 C 203.158 96.041,202.954 95.988,202.456 95.988 C 201.959 95.988,201.755 96.041,202.004 96.106 M222.563 96.110 C 222.884 96.172,223.350 96.170,223.597 96.105 C 223.844 96.041,223.581 95.990,223.012 95.993 C 222.443 95.996,222.241 96.049,222.563 96.110 M228.895 96.364 C 229.144 96.429,229.551 96.429,229.800 96.364 C 230.048 96.299,229.845 96.246,229.347 96.246 C 228.849 96.246,228.646 96.299,228.895 96.364 M206.920 98.182 C 207.313 98.241,207.895 98.240,208.213 98.178 C 208.531 98.117,208.209 98.068,207.498 98.070 C 206.787 98.072,206.527 98.122,206.920 98.182 M217.518 98.181 C 217.909 98.241,218.549 98.241,218.940 98.181 C 219.331 98.122,219.011 98.074,218.229 98.074 C 217.447 98.074,217.127 98.122,217.518 98.181 M89.011 134.891 C 89.260 134.956,89.667 134.956,89.916 134.891 C 90.165 134.826,89.961 134.772,89.463 134.772 C 88.966 134.772,88.762 134.826,89.011 134.891 M240.320 137.621 L 239.560 138.462 240.401 137.702 C 240.863 137.284,241.241 136.906,241.241 136.862 C 241.241 136.662,241.028 136.838,240.320 137.621 M74.276 148.085 C 74.669 148.144,75.251 148.143,75.569 148.081 C 75.887 148.020,75.566 147.971,74.855 147.973 C 74.144 147.975,73.883 148.025,74.276 148.085 M177.954 155.266 C 178.543 155.899,178.716 155.966,178.988 155.673 C 179.253 155.389,179.250 155.359,178.972 155.516 C 178.766 155.633,178.356 155.472,177.938 155.109 L 177.246 154.507 177.954 155.266 M305.689 176.212 C 305.692 176.781,305.745 176.983,305.807 176.661 C 305.869 176.340,305.866 175.874,305.801 175.627 C 305.737 175.380,305.686 175.643,305.689 176.212 M302.074 180.478 C 302.074 181.118,302.125 181.380,302.186 181.060 C 302.248 180.740,302.248 180.217,302.186 179.897 C 302.125 179.577,302.074 179.838,302.074 180.478 M80.608 183.510 C 81.070 183.567,81.826 183.567,82.288 183.510 C 82.750 183.452,82.372 183.405,81.448 183.405 C 80.524 183.405,80.145 183.452,80.608 183.510 M178.755 196.251 C 178.755 197.317,178.801 197.754,178.857 197.220 C 178.913 196.687,178.913 195.814,178.857 195.281 C 178.801 194.748,178.755 195.184,178.755 196.251 M205.365 210.133 C 205.614 210.198,206.021 210.198,206.270 210.133 C 206.519 210.068,206.315 210.015,205.818 210.015 C 205.320 210.015,205.116 210.068,205.365 210.133 M245.834 210.138 C 246.155 210.199,246.621 210.197,246.868 210.132 C 247.115 210.068,246.852 210.017,246.283 210.020 C 245.714 210.023,245.512 210.076,245.834 210.138 M336.199 210.392 C 336.448 210.457,336.855 210.457,337.104 210.392 C 337.353 210.327,337.149 210.273,336.652 210.273 C 336.154 210.273,335.950 210.327,336.199 210.392 M108.597 214.738 C 107.969 215.378,107.514 215.902,107.585 215.902 C 107.656 215.902,108.228 215.378,108.856 214.738 C 109.484 214.098,109.940 213.575,109.868 213.575 C 109.797 213.575,109.225 214.098,108.597 214.738 M343.951 215.902 C 343.951 216.399,344.005 216.603,344.070 216.354 C 344.135 216.105,344.135 215.698,344.070 215.449 C 344.005 215.200,343.951 215.404,343.951 215.902 M335.911 217.889 C 335.880 218.616,335.777 218.726,335.036 218.817 L 334.195 218.922 335.044 218.963 C 335.969 219.008,336.249 218.651,336.061 217.666 C 335.972 217.200,335.938 217.249,335.911 217.889 M142.986 217.534 C 142.986 217.579,143.365 217.957,143.827 218.374 L 144.667 219.134 143.908 218.293 C 143.200 217.510,142.986 217.334,142.986 217.534 M338.462 218.746 L 337.557 218.936 338.382 218.970 C 338.835 218.989,339.279 218.888,339.367 218.746 C 339.454 218.604,339.490 218.503,339.446 218.521 C 339.402 218.540,338.959 218.641,338.462 218.746 M126.374 223.334 C 127.547 223.382,129.467 223.382,130.640 223.334 C 131.813 223.286,130.853 223.247,128.507 223.247 C 126.160 223.247,125.200 223.286,126.374 223.334 M205.239 223.324 C 205.561 223.386,206.026 223.384,206.273 223.319 C 206.520 223.255,206.257 223.204,205.688 223.207 C 205.120 223.210,204.917 223.263,205.239 223.324 M245.834 223.324 C 246.155 223.386,246.621 223.384,246.868 223.319 C 247.115 223.255,246.852 223.204,246.283 223.207 C 245.714 223.210,245.512 223.263,245.834 223.324 M284.240 223.334 C 285.492 223.382,287.470 223.382,288.636 223.334 C 289.802 223.286,288.778 223.247,286.361 223.247 C 283.943 223.248,282.989 223.287,284.240 223.334 M315.643 223.334 C 316.816 223.382,318.736 223.382,319.910 223.334 C 321.083 223.286,320.123 223.247,317.776 223.247 C 315.430 223.247,314.470 223.286,315.643 223.334 M156.496 223.578 C 156.745 223.643,157.153 223.643,157.401 223.578 C 157.650 223.513,157.447 223.460,156.949 223.460 C 156.451 223.460,156.248 223.513,156.496 223.578 " stroke="none" fill="#e49494" fill-rule="evenodd"></path></g></svg>