<svg width="22" height="22" viewBox="0 0 22 22" fill="none" xmlns="http://www.w3.org/2000/svg">
<path d="M11 11C11 11.7293 11.2897 12.4288 11.8055 12.9445C12.3212 13.4603 13.0207 13.75 13.75 13.75C14.4793 13.75 15.1788 13.4603 15.6945 12.9445C16.2103 12.4288 16.5 11.7293 16.5 11C16.5 10.2707 16.2103 9.57118 15.6945 9.05546C15.1788 8.53973 14.4793 8.25 13.75 8.25C13.0207 8.25 12.3212 8.53973 11.8055 9.05546C11.2897 9.57118 11 10.2707 11 11Z" stroke="#4A5A3F" stroke-linecap="round" stroke-linejoin="round"/>
<path d="M5.5 5.5C5.5 4.77065 5.78973 4.07118 6.30546 3.55546C6.82118 3.03973 7.52065 2.75 8.25 2.75H13.75C14.4793 2.75 15.1788 3.03973 15.6945 3.55546C16.2103 4.07118 16.5 4.77065 16.5 5.5C16.5 6.22935 16.2103 6.92882 15.6945 7.44454C15.1788 7.96027 14.4793 8.25 13.75 8.25H8.25C7.52065 8.25 6.82118 7.96027 6.30546 7.44454C5.78973 6.92882 5.5 6.22935 5.5 5.5Z" stroke="#4A5A3F" stroke-linecap="round" stroke-linejoin="round"/>
<path d="M8.25 8.25C7.52066 8.25 6.82118 8.53973 6.30546 9.05546C5.78973 9.57118 5.5 10.2707 5.5 11C5.5 11.7293 5.78973 12.4288 6.30546 12.9445C6.82118 13.4603 7.52066 13.75 8.25 13.75M8.25 13.75H11M8.25 13.75C7.7061 13.75 7.17442 13.9113 6.72218 14.2135C6.26995 14.5156 5.91747 14.9451 5.70933 15.4476C5.50119 15.9501 5.44673 16.5031 5.55284 17.0365C5.65895 17.5699 5.92086 18.0599 6.30546 18.4445C6.69005 18.8291 7.18005 19.0911 7.7135 19.1972C8.24695 19.3033 8.79988 19.2488 9.30238 19.0407C9.80488 18.8325 10.2344 18.4801 10.5365 18.0278C10.8387 17.5756 11 17.0439 11 16.5V2.75" stroke="#4A5A3F" stroke-linecap="round" stroke-linejoin="round"/>
</svg>
