<svg width="22" height="22" viewBox="0 0 22 22" fill="none" xmlns="http://www.w3.org/2000/svg">
<path d="M11 1.83325C9.79626 1.83325 8.60426 2.07035 7.49211 2.53102C6.37996 2.99169 5.36943 3.6669 4.51823 4.51811C2.79915 6.23719 1.83337 8.56877 1.83337 10.9999C1.83337 15.0516 4.46421 18.4891 8.10337 19.7083C8.56171 19.7816 8.70837 19.4974 8.70837 19.2499V17.7008C6.16921 18.2508 5.62837 16.4724 5.62837 16.4724C5.20671 15.4091 4.61087 15.1249 4.61087 15.1249C3.77671 14.5566 4.67504 14.5749 4.67504 14.5749C5.59171 14.6391 6.07754 15.5191 6.07754 15.5191C6.87504 16.9124 8.22254 16.4999 8.74504 16.2799C8.82754 15.6841 9.06587 15.2808 9.32254 15.0516C7.28754 14.8224 5.15171 14.0341 5.15171 10.5416C5.15171 9.52409 5.50004 8.70825 6.09587 8.05742C6.00421 7.82825 5.68337 6.87492 6.18754 5.63742C6.18754 5.63742 6.95754 5.38992 8.70837 6.57242C9.43254 6.37075 10.2209 6.26992 11 6.26992C11.7792 6.26992 12.5675 6.37075 13.2917 6.57242C15.0425 5.38992 15.8125 5.63742 15.8125 5.63742C16.3167 6.87492 15.9959 7.82825 15.9042 8.05742C16.5 8.70825 16.8484 9.52409 16.8484 10.5416C16.8484 14.0433 14.7034 14.8133 12.6592 15.0424C12.9892 15.3266 13.2917 15.8858 13.2917 16.7383V19.2499C13.2917 19.4974 13.4384 19.7908 13.9059 19.7083C17.545 18.4799 20.1667 15.0516 20.1667 10.9999C20.1667 9.79614 19.9296 8.60414 19.4689 7.49199C19.0083 6.37984 18.3331 5.36931 17.4819 4.51811C16.6306 3.6669 15.6201 2.99169 14.508 2.53102C13.3958 2.07035 12.2038 1.83325 11 1.83325Z" fill="#4A5A3F"/>
</svg>
