<svg width="22" height="22" viewBox="0 0 22 22" fill="none" xmlns="http://www.w3.org/2000/svg">
<path fill-rule="evenodd" clip-rule="evenodd" d="M4.58337 3.66659C4.58337 3.18036 4.77653 2.71404 5.12034 2.37022C5.46416 2.02641 5.93048 1.83325 6.41671 1.83325H15.5834C16.0696 1.83325 16.5359 2.02641 16.8797 2.37022C17.2236 2.71404 17.4167 3.18036 17.4167 3.66659V18.3333C17.4167 18.8195 17.2236 19.2858 16.8797 19.6296C16.5359 19.9734 16.0696 20.1666 15.5834 20.1666H6.41671C5.93048 20.1666 5.46416 19.9734 5.12034 19.6296C4.77653 19.2858 4.58337 18.8195 4.58337 18.3333V3.66659ZM15.5834 14.6666V4.58325H6.41671V14.6666H15.5834ZM11 15.5833C10.7569 15.5833 10.5238 15.6798 10.3519 15.8517C10.18 16.0236 10.0834 16.2568 10.0834 16.4999C10.0834 16.743 10.18 16.9762 10.3519 17.1481C10.5238 17.32 10.7569 17.4166 11 17.4166H11.0092C11.2523 17.4166 11.4855 17.32 11.6574 17.1481C11.8293 16.9762 11.9259 16.743 11.9259 16.4999C11.9259 16.2568 11.8293 16.0236 11.6574 15.8517C11.4855 15.6798 11.2523 15.5833 11.0092 15.5833H11Z" fill="#4A5A3F"/>
</svg>
