<svg width="22" height="22" viewBox="0 0 22 22" fill="none" xmlns="http://www.w3.org/2000/svg">
<g clip-path="url(#clip0_2006_3)">
<path d="M13.1054 0.0429688C13.0705 0.0718437 13.0365 0.122891 12.9994 0.125469L11.4747 0.215531L9.65986 0.344437L8.56416 0.430375L6.58759 0.600875L5.93241 0.643844L4.4077 0.731844C3.83089 0.77 3.2527 0.798875 2.67864 0.863328C1.57314 0.987594 0.643298 1.65773 0.429657 2.9138C0.409376 3.03067 0.388751 3.14927 0.388751 3.267C0.386278 7.34674 0.38582 11.4265 0.387376 15.5062C0.386839 16.0519 0.554196 16.5845 0.866735 17.0318C1.39852 17.7971 1.97584 18.5302 2.53856 19.2742C2.99644 19.8797 3.44881 20.4894 3.92491 21.0808C4.26866 21.5088 4.7157 21.8032 5.24886 21.9577C5.28667 21.9684 5.31864 21.9954 5.36092 22.0289C6.24316 22.043 7.11731 22.043 7.99216 22.043C8.02705 22.0141 8.06125 21.9622 8.0982 21.9605L9.2477 21.9134L11.4719 21.7845L12.8261 21.6999L15.0289 21.5703L16.4046 21.4844C17.1318 21.4407 17.8602 21.4112 18.586 21.3508C19.0513 21.3125 19.5251 21.2755 19.9737 21.1566C20.8243 20.9311 21.3649 20.3531 21.6086 19.5083C21.6622 19.3232 21.6952 19.125 21.6958 18.9325L21.6964 5.11861C21.6956 4.67964 21.5474 4.26817 21.2171 3.97805C20.7726 3.58738 20.2975 3.22781 19.8153 2.88286C18.778 2.13881 17.74 1.39442 16.6772 0.688016C16.3106 0.443781 15.8694 0.312125 15.4627 0.128219C15.4222 0.109694 15.3843 0.0860071 15.35 0.05775L13.1054 0.0429688ZM14.4536 1.32567C15.0872 1.33169 15.6488 1.53845 16.1817 1.9262L19.967 4.5937C20.2812 4.81319 20.4168 5.08784 20.4161 5.48058L20.4101 18.5195V18.6914C20.3947 19.4877 20.0114 19.9167 19.2178 19.9805L16.5395 20.153L11.1605 20.4779L6.38083 20.7627C5.67528 20.8096 5.11995 20.5894 4.73255 19.9832C4.65263 19.8569 4.5507 19.7441 4.45927 19.6254L2.33644 16.8881C1.88991 16.3175 1.66166 15.697 1.66561 14.9511L1.67713 3.56572C1.67631 3.42286 1.68821 3.28021 1.7127 3.13947C1.81342 2.58809 2.16181 2.24434 2.72384 2.19278L5.50599 1.97588L9.93864 1.64897L14.1774 1.33547C14.2692 1.3281 14.3615 1.32483 14.4536 1.32567ZM14.2989 2.4243L12.5647 2.5453L4.32331 3.14411C4.07409 3.16216 3.82367 3.1802 3.57789 3.22472C3.49608 3.2395 3.39158 3.32269 3.36614 3.39797C3.34724 3.45125 3.43025 3.55781 3.49127 3.61625C3.60419 3.72419 3.7343 3.81477 3.85736 3.91222C4.14955 4.14253 4.46047 4.35273 4.72842 4.60711C5.23666 5.08973 5.82808 5.20128 6.50561 5.1523L11.8398 4.81783L17.5821 4.47339L17.8021 4.43317C17.6966 4.32369 17.6357 4.23981 17.556 4.18069C17.2745 3.97292 16.9903 3.76882 16.7035 3.56847C16.2674 3.26187 15.83 2.95707 15.3914 2.65409C15.0402 2.46383 14.6748 2.40367 14.2989 2.4243ZM18.4595 5.76177L14.4944 5.99019L8.92252 6.31641L6.13694 6.48364C5.78185 6.5065 5.62131 6.65947 5.56769 7.00666C5.55499 7.09873 5.54936 7.19164 5.55085 7.28458L5.55033 11.6875V17.4647L5.5517 18.539C5.56099 19.0197 5.79663 19.2595 6.27805 19.287L6.64259 19.2821L10.6717 19.0446L18.3657 18.6048C18.8452 18.578 19.0669 18.3676 19.1116 17.8925L19.1176 17.6347L19.1183 6.55273C19.1183 6.48828 19.1205 6.42383 19.1164 6.35938C19.0877 5.91886 18.8981 5.73839 18.4599 5.76177M17.2057 7.83716C17.3078 8.31497 17.1957 8.49372 16.7485 8.58361C16.3063 8.67298 16.3061 8.67298 16.3061 9.12003L16.3114 16.7685C16.3121 16.9426 16.2592 17.035 16.104 17.0854C15.8059 17.1817 15.5139 17.3051 15.2097 17.37C14.7236 17.4749 14.2912 17.346 13.998 16.9249C13.5863 16.3326 13.185 15.7333 12.7942 15.1271L10.1353 10.9758L10.0493 10.8556V16.4524L11.2062 16.7162C11.1581 17.0754 10.9646 17.2954 10.6053 17.3547L9.7721 17.4231L7.65666 17.5447C7.56333 17.2459 7.6821 17.0122 7.9595 16.9304L8.58513 16.7539V9.31287L7.66663 9.23433C7.54855 8.81873 7.80636 8.41792 8.23261 8.37891L9.96683 8.25206L10.9096 8.1883C11.0519 8.17283 11.1278 8.21167 11.2048 8.32923L13.4165 11.6988V11.6995C13.9307 12.4803 14.4441 13.2615 14.9565 14.0434V8.8562L14.1475 8.76683C13.9846 8.75755 13.956 8.68244 13.9777 8.54614C14.0219 8.26341 14.2422 8.02037 14.5329 7.99958L17.2057 7.83716Z" fill="#4A5A3F"/>
</g>
<defs>
<clipPath id="clip0_2006_3">
<rect width="22" height="22" fill="white"/>
</clipPath>
</defs>
</svg>
