<svg width="22" height="22" viewBox="0 0 22 22" fill="none" xmlns="http://www.w3.org/2000/svg">
<path d="M19.25 2.75H2.75C1.99061 2.75 1.375 3.36561 1.375 4.125V15.125C1.375 15.8844 1.99061 16.5 2.75 16.5H19.25C20.0094 16.5 20.625 15.8844 20.625 15.125V4.125C20.625 3.36561 20.0094 2.75 19.25 2.75Z" stroke="#4A5A3F" stroke-width="0.75" stroke-linejoin="round"/>
<path d="M13.0625 19.25L12.7188 16.5H9.28125L8.9375 19.25H13.0625Z" fill="#4A5A3F" stroke="#4A5A3F" stroke-width="0.75" stroke-linecap="round" stroke-linejoin="round"/>
<path d="M15.8125 19.25H6.1875" stroke="#4A5A3F" stroke-width="0.75" stroke-linecap="round" stroke-linejoin="round"/>
<path d="M1.375 13.0625V15.125C1.37602 15.4894 1.52121 15.8385 1.77886 16.0961C2.0365 16.3538 2.38564 16.499 2.75 16.5H19.25C19.6144 16.499 19.9635 16.3538 20.2211 16.0961C20.4788 15.8385 20.624 15.4894 20.625 15.125V13.0625H1.375ZM11 15.8125C10.864 15.8125 10.7311 15.7722 10.618 15.6966C10.505 15.6211 10.4169 15.5137 10.3648 15.3881C10.3128 15.2625 10.2992 15.1242 10.3257 14.9909C10.3522 14.8575 10.4177 14.735 10.5139 14.6389C10.61 14.5427 10.7325 14.4772 10.8659 14.4507C10.9992 14.4242 11.1375 14.4378 11.2631 14.4898C11.3887 14.5419 11.4961 14.63 11.5716 14.743C11.6472 14.8561 11.6875 14.989 11.6875 15.125C11.6875 15.3073 11.6151 15.4822 11.4861 15.6111C11.3572 15.7401 11.1823 15.8125 11 15.8125Z" fill="#4A5A3F"/>
</svg>
