<svg width="48" height="48" viewBox="0 0 48 48" fill="none" xmlns="http://www.w3.org/2000/svg">
<path d="M22.94 32.556C23.2213 32.8369 23.6025 32.9947 24 32.9947C24.3975 32.9947 24.7788 32.8369 25.06 32.556L29.56 28.058C29.825 27.7736 29.9692 27.3975 29.9624 27.0089C29.9555 26.6203 29.7981 26.2496 29.5232 25.9747C29.2484 25.6999 28.8776 25.5425 28.489 25.5356C28.1004 25.5288 27.7244 25.673 27.44 25.938L24 29.372L20.56 25.934C20.4216 25.7908 20.256 25.6766 20.073 25.5981C19.8899 25.5195 19.6931 25.4782 19.4939 25.4766C19.2947 25.475 19.0972 25.513 18.9129 25.5885C18.7286 25.664 18.5612 25.7755 18.4204 25.9164C18.2796 26.0573 18.1683 26.2248 18.093 26.4092C18.0177 26.5936 17.9798 26.7911 17.9816 26.9903C17.9835 27.1895 18.0249 27.3863 18.1036 27.5692C18.1823 27.7522 18.2967 27.9177 18.44 28.056L22.94 32.556ZM24 18.11C23.5757 18.11 23.1687 17.9414 22.8686 17.6413C22.5686 17.3413 22.4 16.9343 22.4 16.51C22.4 16.0856 22.5686 15.6787 22.8686 15.3786C23.1687 15.0785 23.5757 14.91 24 14.91C24.4243 14.91 24.8313 15.0785 25.1314 15.3786C25.4314 15.6787 25.6 16.0856 25.6 16.51C25.6 16.9343 25.4314 17.3413 25.1314 17.6413C24.8313 17.9414 24.4243 18.11 24 18.11ZM22.4 22.142C22.4 22.3521 22.4414 22.5601 22.5218 22.7543C22.6022 22.9484 22.7201 23.1248 22.8686 23.2733C23.0172 23.4219 23.1936 23.5398 23.3877 23.6202C23.5818 23.7006 23.7899 23.742 24 23.742C24.2101 23.742 24.4182 23.7006 24.6123 23.6202C24.8064 23.5398 24.9828 23.4219 25.1314 23.2733C25.2799 23.1248 25.3978 22.9484 25.4782 22.7543C25.5586 22.5601 25.6 22.3521 25.6 22.142C25.6 21.7176 25.4314 21.3107 25.1314 21.0106C24.8313 20.7105 24.4243 20.542 24 20.542C23.5757 20.542 23.1687 20.7105 22.8686 21.0106C22.5686 21.3107 22.4 21.7176 22.4 22.142Z" fill="#1F1F1F"/>
<path fill-rule="evenodd" clip-rule="evenodd" d="M24 4.00201C20.0218 4.00201 16.2064 5.58237 13.3934 8.39541C10.5804 11.2085 9 15.0238 9 19.002V29.002C9 32.9803 10.5804 36.7956 13.3934 39.6086C16.2064 42.4217 20.0218 44.002 24 44.002C27.9782 44.002 31.7936 42.4217 34.6066 39.6086C37.4196 36.7956 39 32.9803 39 29.002V19.002C39 15.0238 37.4196 11.2085 34.6066 8.39541C31.7936 5.58237 27.9782 4.00201 24 4.00201ZM12 19.002C12 15.8194 13.2643 12.7672 15.5147 10.5167C17.7652 8.2663 20.8174 7.00201 24 7.00201C27.1826 7.00201 30.2348 8.2663 32.4853 10.5167C34.7357 12.7672 36 15.8194 36 19.002V29.002C36 32.1846 34.7357 35.2369 32.4853 37.4873C30.2348 39.7377 27.1826 41.002 24 41.002C20.8174 41.002 17.7652 39.7377 15.5147 37.4873C13.2643 35.2369 12 32.1846 12 29.002V19.002Z" fill="#1F1F1F"/>
</svg>
